<!-- icon666.com - MILLIONS vector ICONS FREE --><svg viewBox="0 0 512 512" xmlns="http://www.w3.org/2000/svg"><path d="m512 256c0 141.386719-114.613281 256-256 256s-256-114.613281-256-256 114.613281-256 256-256 256 114.613281 256 256zm0 0" fill="#00edff"></path><path d="m364.484375 72.695312-8.371094 21.222657 3.40625 8.539062-68.988281 98.425781-135.75-130.765624-20.65625 3.382812-8.480469 21.523438 59.472657 59.472656-5.433594-.378906-68.308594-14.617188-9.316406 22.246094 35.914062 35.914062-35.914062 11.089844-8.96875 23.84375 82.457031 82.457031-99.902344 79.628907 106.476563 106.480468c23.394531 7.039063 48.191406 10.839844 73.878906 10.839844 141.386719 0 256-114.613281 256-256 0-24.144531-3.347656-47.511719-9.597656-69.65625l-117.121094-117.125zm0 0" fill="#07bee8"></path><g fill="#f2f6fc"><path d="m393.59375 217.570312-23.933594-23.9375h-50.527344v-12h55.5l27.449219 27.449219zm0 0"></path><path d="m403.820312 239.957031c-10.574218 0-19.179687-8.601562-19.179687-19.179687 0-10.574219 8.605469-19.175782 19.179687-19.175782 10.574219 0 19.179688 8.601563 19.179688 19.175782 0 10.578125-8.605469 19.179687-19.179688 19.179687zm0-26.355469c-3.957031 0-7.179687 3.21875-7.179687 7.175782 0 3.960937 3.222656 7.179687 7.179687 7.179687 3.957032 0 7.179688-3.21875 7.179688-7.179687 0-3.957032-3.222656-7.175782-7.179688-7.175782zm0 0"></path><path d="m395.0625 168.84375c-10.574219 0-19.179688-8.605469-19.179688-19.179688 0-10.574218 8.605469-19.179687 19.179688-19.179687s19.179688 8.605469 19.179688 19.179687c0 10.574219-8.605469 19.179688-19.179688 19.179688zm0-26.359375c-3.957031 0-7.179688 3.222656-7.179688 7.179687 0 3.957032 3.222657 7.179688 7.179688 7.179688s7.179688-3.21875 7.179688-7.179688c-.003907-3.957031-3.222657-7.179687-7.179688-7.179687zm0 0"></path><path d="m371.664062 101.890625c-10.574218 0-19.179687-8.605469-19.179687-19.179687 0-10.574219 8.605469-19.179688 19.179687-19.179688 10.574219 0 19.179688 8.605469 19.179688 19.179688 0 10.574218-8.605469 19.179687-19.179688 19.179687zm0-26.359375c-3.957031 0-7.179687 3.222656-7.179687 7.179688 0 3.960937 3.222656 7.179687 7.179687 7.179687 3.957032 0 7.179688-3.21875 7.179688-7.179687 0-3.957032-3.222656-7.179688-7.179688-7.179688zm0 0"></path><path d="m336.949219 143.664062h44.933593v12h-44.933593zm0 0"></path><path d="m358.507812 123.476562h-39.375v-12h31.453126l8.539062-19.984374 11.035156 4.71875zm0 0"></path></g><path d="m118.40625 217.570312-8.488281-8.488281 27.449219-27.449219h55.5v12h-50.527344zm0 0" fill="#fff"></path><path d="m108.179688 239.957031c-10.574219 0-19.179688-8.601562-19.179688-19.179687 0-10.574219 8.605469-19.175782 19.179688-19.175782 10.574218 0 19.179687 8.601563 19.179687 19.175782 0 10.578125-8.605469 19.179687-19.179687 19.179687zm0-26.355469c-3.957032 0-7.179688 3.21875-7.179688 7.175782 0 3.960937 3.222656 7.179687 7.179688 7.179687 3.957031 0 7.179687-3.21875 7.179687-7.179687-.003906-3.957032-3.222656-7.175782-7.179687-7.175782zm0 0" fill="#fff"></path><path d="m116.9375 168.84375c-10.574219 0-19.179688-8.605469-19.179688-19.179688 0-10.574218 8.605469-19.179687 19.179688-19.179687s19.179688 8.605469 19.179688 19.179687c0 10.574219-8.601563 19.179688-19.179688 19.179688zm0-26.359375c-3.957031 0-7.179688 3.222656-7.179688 7.179687 0 3.957032 3.222657 7.179688 7.179688 7.179688s7.179688-3.21875 7.179688-7.179688c0-3.957031-3.222657-7.179687-7.179688-7.179687zm0 0" fill="#fff"></path><path d="m140.335938 101.890625c-10.574219 0-19.179688-8.605469-19.179688-19.179687 0-10.574219 8.605469-19.179688 19.179688-19.179688 10.574218 0 19.179687 8.605469 19.179687 19.179688 0 10.574218-8.605469 19.179687-19.179687 19.179687zm0-26.359375c-3.957032 0-7.179688 3.222656-7.179688 7.179688 0 3.960937 3.222656 7.179687 7.179688 7.179687 3.957031 0 7.179687-3.21875 7.179687-7.179687 0-3.957032-3.222656-7.179688-7.179687-7.179688zm0 0" fill="#fff"></path><path d="m130.117188 143.664062h44.933593v12h-44.933593zm0 0" fill="#fff"></path><path d="m192.867188 123.476562h-39.375l-11.652344-27.265624 11.035156-4.71875 8.539062 19.984374h31.453126zm0 0" fill="#fff"></path><path d="m346.0625 439.304688-90.1875-44.625v-117.65625l90.1875 44.621093zm0 0" fill="#636978"></path><path d="m436.359375 394.679688-90.296875 44.625v-117.660157l90.296875-44.621093zm0 0" fill="#414952"></path><path d="m255.875 277.023438 90.1875 44.621093 90.296875-44.621093-90.296875-43.335938zm0 0" fill="#333940"></path><path d="m165.9375 439.304688-90.296875-44.625v-117.65625l90.296875 44.621093zm0 0" fill="#707789"></path><path d="m255.875 394.679688-89.9375 44.625v-117.660157l89.9375-44.621093zm0 0" fill="#555a66"></path><path d="m75.640625 277.023438 90.296875 44.621093 89.9375-44.621093-89.9375-43.335938zm0 0" fill="#414952"></path><path d="m255.875 279.40625-90.398438-45.71875v-116.5625l90.398438 44.621094zm0 0" fill="#707789"></path><path d="m346.0625 233.6875-90.1875 45.71875v-117.660156l90.1875-44.621094zm0 0" fill="#414952"></path><path d="m165.476562 117.125 90.398438 44.621094 90.1875-44.621094-90.1875-44.429688zm0 0" fill="#414952"></path><path d="m255.875 72.71875v89.007812l90.1875-44.601562zm0 0" fill="#333940"></path></svg>