<!-- icon666.com - MILLIONS vector ICONS FREE --><svg version="1.1" id="Layer_1" xmlns="http://www.w3.org/2000/svg" xmlns:xlink="http://www.w3.org/1999/xlink" x="0px" y="0px" viewBox="0 0 512 512" style="enable-background:new 0 0 512 512;" xml:space="preserve"><circle style="fill:#273B7A;" cx="256" cy="256" r="256"></circle><path style="fill:#121149;" d="M504.334,318.369l-97.492-97.492l-74.64,36.045l-35.69-35.688L256,392.025l99.793,99.793 C428.961,460.817,484.709,396.753,504.334,318.369z"></path><polygon style="fill:#FFEDB5;" points="352.694,164.797 406.842,220.879 256,392.025 105.158,220.879 159.306,164.797 "></polygon><polygon style="fill:#FEE187;" points="256,164.797 352.694,164.797 406.842,220.879 256,392.025 "></polygon><polygon style="fill:#FFC61B;" points="292.467,164.797 312.889,220.879 256,392.025 199.111,220.879 219.533,164.797 "></polygon><polygon style="fill:#EAA22F;" points="292.467,164.797 256,164.797 256,392.023 312.889,220.879 "></polygon><polygon style="fill:#E09112;" points="352.694,164.795 312.315,164.795 312.315,220.877 406.842,220.877 "></polygon><rect x="199.404" y="164.788" style="fill:#FFEDB5;" width="112.916" height="56.082"></rect><rect x="256" y="164.788" style="fill:#FEE187;" width="56.315" height="56.082"></rect><polygon style="fill:#D35933;" points="159.306,164.795 105.158,220.877 199.399,220.877 199.399,164.795 "></polygon><g><polygon style="fill:#FFC61B;" points="159.306,164.797 199.111,220.879 256,164.797 "></polygon><polygon style="fill:#FFC61B;" points="352.694,164.797 312.889,220.879 256,164.797 "></polygon></g></svg>