<!-- icon666.com - MILLIONS vector ICONS FREE --><svg version="1.1" id="Layer_1" xmlns="http://www.w3.org/2000/svg" xmlns:xlink="http://www.w3.org/1999/xlink" x="0px" y="0px" viewBox="0 0 512 512" style="enable-background:new 0 0 512 512;" xml:space="preserve"><path style="fill:#FFEAB5;" d="M256,0C114.615,0,0,114.616,0,256c0,140.672,113.463,254.844,253.865,255.991l258.127-258.127 C510.845,113.463,396.672,0,256,0z"></path><path style="fill:#FFCD9C;" d="M510.345,226.911L404.035,120.6l-12.663,12.663l-74.77-74.77L256,131.731H119.096L58.494,316.602 l59.175,59.175l-9.704,40.893l88.309,88.309C215.437,509.559,235.432,512,256,512c141.385,0,256-114.616,256-256 C512,246.162,511.426,236.459,510.345,226.911z"></path><polygon style="fill:#FF0F47;" points="404.035,120.598 404.035,416.668 256,416.668 256,394.407 381.774,394.407 381.774,142.859 256,142.859 256,120.598 "></polygon><polygon style="fill:#FF6176;" points="256,394.407 256,416.668 107.965,416.668 107.965,120.598 256,120.598 256,142.859 130.226,142.859 130.226,394.407 "></polygon><path style="fill:#C20035;" d="M256,307.2l-33.391,149.148l90.73,0.256c17.416-15.686,28.366-38.414,28.366-63.699 C341.704,345.571,303.333,307.2,256,307.2z"></path><g><path style="fill:#FF0F47;" d="M170.296,392.904c0,25.287,10.951,48.017,28.37,63.704l57.334-0.26V307.2 C208.667,307.2,170.296,345.571,170.296,392.904z"></path><path style="fill:#FF0F47;" d="M256,329.461l-22.663,38.951L256,407.374c21.517,0,38.957-17.441,38.957-38.962 C294.957,346.902,277.517,329.461,256,329.461z"></path></g><path style="fill:#FF6176;" d="M256,329.461v77.913c-21.517,0-38.957-17.441-38.957-38.962 C217.043,346.902,234.483,329.461,256,329.461z"></path><path style="fill:#FF0F47;" d="M238.299,451.339L256,478.609c22.048,0,42.145-8.332,57.333-22.01 c-11.664-19.48-32.969-32.529-57.333-32.529L238.299,451.339z"></path><path style="fill:#FF6176;" d="M198.667,456.598c15.187,13.678,35.285,22.01,57.333,22.01V424.07 C231.637,424.07,210.331,437.118,198.667,456.598z"></path><path style="fill:#C20035;" d="M119.096,170.296L85.704,319.443l90.73,0.256C193.85,304.013,204.8,281.285,204.8,256 C204.8,208.667,166.429,170.296,119.096,170.296z"></path><g><path style="fill:#FF0F47;" d="M33.391,256c0,25.287,10.951,48.017,28.37,63.704l57.334-0.26V170.296 C71.762,170.296,33.391,208.667,33.391,256z"></path><path style="fill:#FF0F47;" d="M119.096,192.557l-22.663,38.951l22.663,38.962c21.517,0,38.957-17.441,38.957-38.962 C158.052,209.998,140.613,192.557,119.096,192.557z"></path></g><path style="fill:#FF6176;" d="M119.096,192.557v77.913c-21.517,0-38.957-17.441-38.957-38.962 C80.139,209.998,97.578,192.557,119.096,192.557z"></path><path style="fill:#FF0F47;" d="M101.395,314.435l17.701,27.27c22.048,0,42.145-8.332,57.333-22.01 c-11.664-19.48-32.969-32.529-57.333-32.529L101.395,314.435z"></path><path style="fill:#FF6176;" d="M61.763,319.694c15.187,13.678,35.285,22.01,57.333,22.01v-54.539 C94.732,287.165,73.426,300.213,61.763,319.694z"></path><path style="fill:#C20035;" d="M392.904,170.296l-33.391,149.148l90.73,0.256c17.416-15.686,28.366-38.414,28.366-63.699 C478.609,208.667,440.238,170.296,392.904,170.296z"></path><g><path style="fill:#FF0F47;" d="M307.2,256c0,25.287,10.951,48.017,28.37,63.704l57.334-0.26V170.296 C345.571,170.296,307.2,208.667,307.2,256z"></path><path style="fill:#FF0F47;" d="M392.904,192.557l-22.663,38.951l22.663,38.962c21.517,0,38.957-17.441,38.957-38.962 C431.861,209.998,414.422,192.557,392.904,192.557z"></path></g><path style="fill:#FF6176;" d="M392.904,192.557v77.913c-21.517,0-38.957-17.441-38.957-38.962 C353.948,209.998,371.387,192.557,392.904,192.557z"></path><path style="fill:#FF0F47;" d="M375.204,314.435l17.701,27.27c22.048,0,42.145-8.332,57.333-22.01 c-11.664-19.48-32.969-32.529-57.333-32.529L375.204,314.435z"></path><path style="fill:#FF6176;" d="M335.571,319.694c15.188,13.678,35.285,22.01,57.333,22.01v-54.539 C368.541,287.165,347.235,300.213,335.571,319.694z"></path><path style="fill:#C20035;" d="M256,33.391l-33.391,149.148l90.73,0.256c17.416-15.686,28.366-38.414,28.366-63.699 C341.704,71.762,303.333,33.391,256,33.391z"></path><g><path style="fill:#FF0F47;" d="M170.296,119.096c0,25.287,10.951,48.017,28.37,63.704l57.334-0.26V33.391 C208.667,33.391,170.296,71.762,170.296,119.096z"></path><path style="fill:#FF0F47;" d="M256,55.652l-22.663,38.951L256,133.565c21.517,0,38.957-17.441,38.957-38.962 C294.957,73.094,277.517,55.652,256,55.652z"></path></g><path style="fill:#FF6176;" d="M256,55.652v77.913c-21.517,0-38.957-17.441-38.957-38.962C217.043,73.094,234.483,55.652,256,55.652 z"></path><path style="fill:#FF0F47;" d="M238.299,177.53L256,204.8c22.048,0,42.145-8.332,57.333-22.01 c-11.664-19.48-32.969-32.529-57.333-32.529L238.299,177.53z"></path><path style="fill:#FF6176;" d="M198.667,182.79c15.187,13.678,35.285,22.01,57.333,22.01v-54.539 C231.637,150.261,210.331,163.309,198.667,182.79z"></path></svg>