<!-- icon666.com - MILLIONS vector ICONS FREE --><svg id="Layer_1" enable-background="new 0 0 512 512" viewBox="0 0 512 512" xmlns="http://www.w3.org/2000/svg"><g><g><path d="m437.02 74.98c-48.351-48.352-112.639-74.98-181.02-74.98s-132.669 26.628-181.02 74.98c-48.352 48.351-74.98 112.639-74.98 181.02 0 75.519 33.125 146.817 90.881 195.614h330.238c57.756-48.797 90.881-120.095 90.881-195.614 0-68.381-26.628-132.669-74.98-181.02z" fill="#00d8e0"></path><path d="m437.02 74.98c-48.351-48.352-112.638-74.98-181.019-74.98v451.614h165.118c57.756-48.797 90.881-120.095 90.881-195.614 0-68.381-26.628-132.669-74.98-181.02z" fill="#00acb3"></path><path d="m256 80.333c-52.566 0-95.333 42.767-95.333 95.335 0 52.566 42.767 95.332 95.333 95.332s95.333-42.766 95.333-95.332c0-52.568-42.767-95.335-95.333-95.335z" fill="#e7f0ef"></path></g><path d="m256 305.267c-84.727 0-155.635 60.294-172.074 140.228 2.282 2.072 4.59 4.122 6.955 6.12 46.087 38.94 104.727 60.385 165.119 60.385s119.032-21.445 165.119-60.386c2.365-1.998 4.673-4.048 6.955-6.12-16.439-79.933-87.347-140.227-172.074-140.227z" fill="#008adf"></path><path d="m351.333 175.668c0-52.568-42.766-95.334-95.332-95.335v190.667c52.566 0 95.332-42.766 95.332-95.332z" fill="#c5e1e6"></path><path d="m428.074 445.494c-16.439-79.934-87.347-140.227-172.073-140.228v206.734c60.392 0 119.031-21.445 165.118-60.386 2.365-1.998 4.673-4.048 6.955-6.12z" fill="#0065a3"></path></g></svg>